<?xml version="1.0" encoding="iso-8859-1"?>
<!-- Generator: Adobe Illustrator 19.0.0, SVG Export Plug-In . SVG Version: 6.00 Build 0)  -->
<svg version="1.1" id="Capa_1" xmlns="http://www.w3.org/2000/svg" xmlns:xlink="http://www.w3.org/1999/xlink" x="0px" y="0px"
	 viewBox="0 0 512 512" style="enable-background:new 0 0 512 512;" xml:space="preserve">
<g>
	<g>
		<path d="M512,208.437v-58.386h-24.011V88.768l-68.982-77.725l-68.982,77.725v61.284h-25.044V88.768L256,11.043l-68.982,77.725
			v61.284h-25.044V88.768L92.993,11.043L24.012,88.768v61.284H0v58.386h24.011v145.297H0v58.385h24.011v88.838h137.963v-88.838
			h25.044v88.838h137.963v-88.838h25.044v88.838h137.963v-88.838h24.011v-58.385h-24.011V208.437H512z M365.041,94.47l53.966-60.805
			l53.966,60.805v55.582H365.041V94.47z M202.034,94.47L256,33.665l53.966,60.805v55.582H202.034V94.47z M39.026,94.47
			l53.966-60.805l53.966,60.805v55.582H39.026V94.47z M39.026,485.941v-73.823h107.932v73.823H39.026z M309.966,485.941H202.034
			v-73.823h107.932V485.941z M472.973,485.941H365.041v-73.823h107.932V485.941z M496.984,368.749v28.353h-8.995H350.026h-25.044
			H187.019h-25.044H24.011h-8.995v-28.353h8.995h137.963h25.044h137.963h25.044h137.963H496.984z M39.026,353.734V208.437h107.932
			v145.297H39.026z M161.974,353.734V208.437h25.044v145.297H161.974z M202.034,353.734V208.437h107.932v145.297H202.034z
			 M324.982,353.734V208.437h25.044v145.297H324.982z M365.041,353.734V208.437h107.932v145.297H365.041z M350.025,193.422h-25.044
			H187.018h-25.044H24.011h-8.995v-28.354h8.995h137.963h25.044h137.963h25.044h137.963h8.995v28.354h-8.995H350.025z"/>
	</g>
</g>
<g>
	<g>
		<rect x="85.489" y="171.738" width="15.016" height="15.016"/>
	</g>
</g>
<g>
	<g>
		<rect x="85.489" y="375.419" width="15.016" height="15.016"/>
	</g>
</g>
<g>
	<g>
		<rect x="248.488" y="171.738" width="15.016" height="15.016"/>
	</g>
</g>
<g>
	<g>
		<rect x="248.488" y="375.419" width="15.016" height="15.016"/>
	</g>
</g>
<g>
	<g>
		<rect x="411.497" y="171.738" width="15.016" height="15.016"/>
	</g>
</g>
<g>
	<g>
		<rect x="411.497" y="375.419" width="15.016" height="15.016"/>
	</g>
</g>
<g>
	<g>
		<polygon points="438.379,64.879 427.148,74.847 451.798,102.619 451.798,118.702 466.813,118.702 466.813,96.918 		"/>
	</g>
</g>
<g>
	<g>
		<polygon points="274.288,64.879 263.058,74.847 287.707,102.619 287.707,118.702 302.723,118.702 302.723,96.918 		"/>
	</g>
</g>
<g>
	<g>
		<polygon points="112.2,64.879 100.97,74.847 125.619,102.619 125.619,118.702 140.635,118.702 140.635,96.918 		"/>
	</g>
</g>
<g>
	<g>
		<polygon points="58.84,466.712 58.84,437.566 43.824,437.566 43.824,481.728 68.1,481.728 68.1,466.712 		"/>
	</g>
</g>
<g>
	<g>
		<polygon points="222.348,466.712 222.348,437.566 207.332,437.566 207.332,481.728 231.607,481.728 231.607,466.712 		"/>
	</g>
</g>
<g>
	<g>
		<polygon points="384.853,466.712 384.853,437.566 369.838,437.566 369.838,481.728 394.114,481.728 394.114,466.712 		"/>
	</g>
</g>
<g>
</g>
<g>
</g>
<g>
</g>
<g>
</g>
<g>
</g>
<g>
</g>
<g>
</g>
<g>
</g>
<g>
</g>
<g>
</g>
<g>
</g>
<g>
</g>
<g>
</g>
<g>
</g>
<g>
</g>
</svg>
