<?xml version="1.0" encoding="iso-8859-1"?>
<!-- Generator: Adobe Illustrator 19.0.0, SVG Export Plug-In . SVG Version: 6.00 Build 0)  -->
<svg version="1.1" id="Capa_1" xmlns="http://www.w3.org/2000/svg" xmlns:xlink="http://www.w3.org/1999/xlink" x="0px" y="0px"
	 viewBox="0 0 512 512" style="enable-background:new 0 0 512 512;" xml:space="preserve">
<g>
	<g>
		<path d="M415.578,164.76c-0.104-0.232-0.221-0.461-0.352-0.686c-0.143-0.249-0.302-0.484-0.468-0.709
			c-15.991-27.3-38.818-50.126-66.117-66.118c-0.226-0.167-0.462-0.326-0.711-0.47c-0.226-0.13-0.456-0.247-0.689-0.353
			C320.338,80.981,289.182,72.144,256,72.144c-33.182,0-64.338,8.838-91.24,24.28c-0.233,0.104-0.463,0.221-0.689,0.352
			c-0.249,0.144-0.485,0.303-0.711,0.47c-27.299,15.991-50.126,38.818-66.117,66.117c-0.166,0.226-0.325,0.461-0.469,0.709
			c-0.13,0.225-0.247,0.454-0.352,0.686c-15.442,26.905-24.28,58.061-24.28,91.244c0,33.183,8.838,64.34,24.281,91.243
			c0.104,0.232,0.221,0.461,0.352,0.686c0.124,0.216,0.269,0.413,0.411,0.612c15.994,27.343,38.843,50.205,66.175,66.215
			c0.226,0.167,0.462,0.326,0.711,0.47c0.161,0.093,0.329,0.163,0.494,0.242c26.948,15.511,58.175,24.39,91.436,24.39
			c33.261,0,64.489-8.878,91.436-24.39c0.165-0.08,0.333-0.149,0.494-0.242c0.25-0.144,0.485-0.303,0.711-0.47
			c27.332-16.01,50.181-38.872,66.175-66.215c0.142-0.198,0.286-0.396,0.411-0.612c0.13-0.225,0.247-0.454,0.352-0.686
			c15.441-26.904,24.279-58.06,24.279-91.243S431.021,191.663,415.578,164.76z M405.797,333.811l-14.146-8.167
			c-3.594-2.074-8.19-0.845-10.265,2.75c-2.075,3.594-0.844,8.19,2.75,10.265l14.132,8.159
			c-13.223,20.641-30.811,38.23-51.453,51.453l-8.159-14.132c-2.075-3.595-6.671-4.823-10.265-2.75
			c-3.594,2.075-4.825,6.671-2.75,10.265l8.167,14.146c-21.205,11.06-45.036,17.745-70.293,18.857V408.3
			c0-4.151-3.365-7.515-7.515-7.515s-7.515,3.364-7.515,7.515v16.356c-25.256-1.112-49.087-7.797-70.293-18.857l8.167-14.146
			c2.075-3.594,0.844-8.19-2.75-10.265c-3.594-2.074-8.19-0.845-10.265,2.75l-8.159,14.132
			c-20.641-13.223-38.23-30.81-51.453-51.452l14.132-8.159c3.594-2.075,4.825-6.671,2.75-10.265
			c-2.075-3.595-6.671-4.824-10.265-2.75l-14.146,8.167c-11.06-21.205-17.746-45.036-18.857-70.293h16.356
			c4.15,0,7.515-3.364,7.515-7.515c0-4.151-3.365-7.515-7.515-7.515H87.347c1.112-25.257,7.797-49.088,18.857-70.293l14.146,8.167
			c3.834,2.212,8.87,0.546,10.644-3.499c1.517-3.46,0.139-7.63-3.129-9.518l-14.132-8.159c13.223-20.641,30.811-38.23,51.453-51.453
			l8.159,14.132c2.208,3.826,7.403,4.914,10.967,2.292c3.043-2.238,3.937-6.538,2.049-9.806l-8.167-14.146
			c21.205-11.06,45.036-17.745,70.293-18.857v16.356c0,4.151,3.365,7.515,7.515,7.515c4.15,0,7.515-3.364,7.515-7.515V87.349
			c25.256,1.112,49.087,7.797,70.293,18.857l-8.167,14.146c-1.888,3.268-0.994,7.569,2.049,9.806
			c3.564,2.621,8.759,1.533,10.967-2.292l8.159-14.132c20.641,13.223,38.23,30.81,51.452,51.453l-14.132,8.159
			c-3.268,1.888-4.646,6.057-3.129,9.518c1.773,4.045,6.809,5.711,10.644,3.499l14.146-8.167
			c11.06,21.205,17.746,45.036,18.857,70.293h-16.358c-4.15,0-7.515,3.364-7.515,7.515s3.365,7.515,7.515,7.515h16.356
			C423.541,288.775,416.856,312.606,405.797,333.811z"/>
	</g>
</g>
<g>
	<g>
		<path d="M360.575,169.422c-2.781-3.357-8.016-3.601-11.1-0.519l-26.162,26.162c-1.815,1.815-4.876,1.718-6.572-0.206
			c-1.551-1.759-1.464-4.511,0.194-6.169l26.162-26.162c3.083-3.084,2.841-8.316-0.518-11.1
			c-24.267-20.113-55.016-31.19-86.581-31.19c-74.861,0-135.765,60.904-135.765,135.765s60.904,135.765,135.765,135.765
			s135.766-60.904,135.766-135.765C391.765,224.437,380.689,193.689,360.575,169.422z M256,376.739
			c-66.574,0-120.736-54.162-120.736-120.736S189.426,135.267,256,135.267c25.299,0,50.006,7.999,70.434,22.67l-20.124,20.125
			c-7.617,7.618-7.617,20.013,0.001,27.631c7.541,7.539,20.087,7.518,27.631,0l20.124-20.125
			c14.671,20.429,22.67,45.136,22.67,70.435C376.736,322.577,322.574,376.739,256,376.739z"/>
	</g>
</g>
<g>
	<g>
		<path d="M360.203,248.488h-19.403l-5.939-11.877c-1.226-2.453-3.692-4.043-6.433-4.148c-2.747-0.116-5.321,1.291-6.732,3.643
			l-15.136,25.226l-11.273-39.456c-0.953-3.335-4.068-5.587-7.53-5.445c-3.465,0.141-6.385,2.634-7.065,6.035l-7.697,38.485
			l-9.57-62.201c-0.535-3.481-3.525-6.18-7.041-6.36c-3.62-0.186-6.936,2.334-7.722,5.873l-11.439,51.48l-6.566-13.132
			c-1.359-2.717-4.214-4.357-7.254-4.135c-3.032,0.216-5.635,2.236-6.596,5.119l-7.453,22.357l-10.146-45.656
			c-0.714-3.217-3.444-5.594-6.728-5.86c-3.284-0.272-6.361,1.639-7.585,4.699l-14.142,35.354h-18.96
			c-4.15,0-7.515,3.364-7.515,7.515s3.365,7.515,7.515,7.515h24.047c3.073,0,5.836-1.871,6.977-4.724l6.996-17.489l10.754,48.392
			c0.713,3.211,3.529,5.634,6.808,5.864c3.383,0.237,6.583-1.9,7.656-5.118l10.294-30.883l7.919,15.837
			c1.452,2.905,4.712,4.574,7.916,4.058c3.006-0.484,5.48-2.815,6.14-5.788l7.352-33.085l9.947,64.659
			c0.554,3.603,3.614,6.288,7.259,6.369c0.057,0.001,0.113,0.002,0.17,0.002c3.573,0,6.663-2.523,7.367-6.041l9.952-49.762
			l7.516,26.306c1.767,6.188,10.354,7.327,13.67,1.802l17.004-28.339l1.894,3.787c1.272,2.545,3.875,4.154,6.721,4.154h24.047
			c4.15,0,7.515-3.364,7.515-7.515C367.718,251.853,364.354,248.488,360.203,248.488z"/>
	</g>
</g>
<g>
	<g>
		<path d="M256,55.111c4.15,0,7.515-3.364,7.515-7.515V7.518c0-4.151-3.365-7.515-7.515-7.515
			c-59.777,0-117.946,21.041-163.793,59.249c-3.188,2.657-3.619,7.395-0.962,10.584c2.657,3.187,7.395,3.617,10.584,0.962
			c41.229-34.358,93.044-53.967,146.656-55.648v25.059c-54.855,1.865-106.16,24.11-145.165,63.114
			c-40.783,40.783-63.242,95.005-63.242,152.68c0,57.584,22.4,111.744,63.072,152.506c38.896,38.98,90.079,61.279,144.834,63.266
			v25.063C118.848,492.592,15.029,386.091,15.029,256.003c0-61.41,23.108-119.9,65.065-164.696
			c2.838-3.028,2.682-7.785-0.348-10.622c-3.028-2.838-7.784-2.682-10.622,0.348C24.549,128.623,0,190.763,0,256.003
			c0,68.289,26.569,132.516,74.812,180.846c48.236,48.323,112.401,75.011,180.672,75.148c4.097,0,7.53-3.411,7.53-7.515v-40.078
			c0-4.143-3.354-7.505-7.497-7.515c-110.506-0.261-200.409-90.378-200.409-200.886C55.108,145.231,145.228,55.111,256,55.111z"/>
	</g>
</g>
<g>
	<g>
		<path d="M320.27,8.143c-4.016-1.041-8.117,1.375-9.156,5.393l-10.043,38.81c-1.026,3.964,1.434,8.134,5.393,9.158
			c88.57,22.912,150.429,102.893,150.429,194.5c0,4.151,3.365,7.515,7.515,7.515h40.078c4.15,0,7.515-3.364,7.515-7.515
			C512,139.257,433.158,37.334,320.27,8.143z M471.792,248.488c-3.196-92.793-65.399-173.211-154.322-199.528l6.281-24.274
			c99.97,29.182,169.883,119.576,173.103,223.802H471.792z"/>
	</g>
</g>
<g>
</g>
<g>
</g>
<g>
</g>
<g>
</g>
<g>
</g>
<g>
</g>
<g>
</g>
<g>
</g>
<g>
</g>
<g>
</g>
<g>
</g>
<g>
</g>
<g>
</g>
<g>
</g>
<g>
</g>
</svg>
