<?xml version="1.0" encoding="iso-8859-1"?>
<!-- Generator: Adobe Illustrator 19.0.0, SVG Export Plug-In . SVG Version: 6.00 Build 0)  -->
<svg version="1.1" id="Capa_1" xmlns="http://www.w3.org/2000/svg" xmlns:xlink="http://www.w3.org/1999/xlink" x="0px" y="0px"
	 viewBox="0 0 512 512" style="enable-background:new 0 0 512 512;" xml:space="preserve">
<path style="fill:#BEBEC6;" d="M256,72.003c-101.458,0-184,82.542-184,184s82.542,184,184,184s184-82.542,184-184
	S357.458,72.003,256,72.003z"/>
<g>
	<path style="fill:#676779;" d="M256,104.003c4.418,0,8-3.582,8-8V72.188c-2.654-0.114-5.319-0.185-8-0.185s-5.346,0.07-8,0.185
		v23.815C248,100.421,251.582,104.003,256,104.003z"/>
	<path style="fill:#676779;" d="M176.007,125.439c6.066,0,9.937-6.778,6.921-12.001l-11.896-20.604
		c-4.739,2.478-9.361,5.149-13.847,8.016l11.886,20.587C170.554,124.005,173.243,125.439,176.007,125.439z"/>
	<path style="fill:#676779;" d="M117.429,184.004c3.716,0,7.029-2.658,7.824-6.29c0.737-3.364-0.836-6.918-3.817-8.639
		l-20.588-11.886c-2.867,4.486-5.538,9.108-8.016,13.846l20.604,11.896C114.696,183.658,116.071,184.004,117.429,184.004z"/>
	<path style="fill:#676779;" d="M104,256.003c0-4.418-3.582-8-8-8H72.184c-0.114,2.654-0.184,5.319-0.184,8
		c0,2.681,0.07,5.346,0.184,8H96C100.418,264.003,104,260.421,104,256.003z"/>
	<path style="fill:#676779;" d="M124.364,332.003c-2.209-3.826-7.102-5.137-10.928-2.928l-20.604,11.896
		c2.478,4.739,5.149,9.361,8.016,13.846l20.588-11.886C125.262,340.722,126.573,335.829,124.364,332.003z"/>
	<path style="fill:#676779;" d="M180,387.64c-3.826-2.211-8.719-0.899-10.928,2.928l-11.886,20.587
		c4.486,2.867,9.108,5.538,13.847,8.016l11.896-20.604C185.137,394.741,183.826,389.849,180,387.64z"/>
	<path style="fill:#676779;" d="M256,408.003c-4.418,0-8,3.582-8,8v23.815c2.654,0.114,5.319,0.185,8,0.185s5.346-0.07,8-0.185
		v-23.815C264,411.585,260.418,408.003,256,408.003z"/>
	<path style="fill:#676779;" d="M332,387.64c-3.826,2.209-5.137,7.102-2.928,10.928l11.896,20.604
		c4.739-2.478,9.361-5.149,13.847-8.016l-11.886-20.587C340.719,386.741,335.826,385.431,332,387.64z"/>
	<path style="fill:#676779;" d="M387.636,332.003c-2.209,3.826-0.898,8.719,2.928,10.928l20.588,11.886
		c2.867-4.486,5.538-9.108,8.016-13.846l-20.604-11.896C394.737,326.864,389.845,328.177,387.636,332.003z"/>
	<path style="fill:#676779;" d="M439.816,248.003H416c-4.418,0-8,3.582-8,8s3.582,8,8,8h23.816c0.114-2.654,0.184-5.319,0.184-8
		C440,253.322,439.93,250.657,439.816,248.003z"/>
	<path style="fill:#676779;" d="M387.636,180.003c2.179,3.773,7.149,5.11,10.928,2.928l20.604-11.896
		c-2.478-4.739-5.149-9.361-8.016-13.846l-20.588,11.886C386.738,171.284,385.427,176.177,387.636,180.003z"/>
	<path style="fill:#676779;" d="M332,124.366c3.779,2.183,8.749,0.846,10.928-2.928l11.886-20.587
		c-4.486-2.867-9.108-5.538-13.847-8.016l-11.896,20.604C326.863,117.265,328.174,122.157,332,124.366z"/>
</g>
<path style="fill:#A8A8B3;" d="M256,112.003c-79.402,0-144,64.598-144,144s64.598,144,144,144s144-64.598,144-144
	S335.402,112.003,256,112.003z"/>
<path style="fill:#9D5CAD;" d="M328.485,200.488c-2.343,2.343-5.414,3.515-8.485,3.515s-6.142-1.172-8.485-3.515
	c-4.686-4.687-4.686-12.284,0-16.971l19.669-19.669c3.52-3.52,2.982-9.334-1.075-12.22c-21.233-15.104-47.272-23.893-75.378-23.62
	c-69.419,0.673-126.082,57.362-126.725,126.781c-0.664,71.653,57.553,129.87,129.206,129.207
	c69.42-0.642,126.109-57.305,126.782-126.724c0.273-28.106-8.516-54.145-23.62-75.379c-2.886-4.057-8.699-4.595-12.22-1.075
	L328.485,200.488z"/>
<path style="fill:#B874C4;" d="M256,368.003c-61.757,0-112-50.243-112-112s50.243-112,112-112c20.077,0,39.752,5.431,56.882,15.52
	l-12.681,12.682c-10.917,10.917-10.917,28.681-0.001,39.598c5.291,5.289,12.322,8.201,19.8,8.201s14.509-2.912,19.798-8.2
	l12.682-12.682c10.089,17.13,15.52,36.805,15.52,56.882C368,317.76,317.757,368.003,256,368.003z"/>
<path style="fill:#8759B5;" d="M272.002,312.003c-3.9,0-7.316-2.928-7.909-6.783l-9.523-61.902l-6.76,30.421
	c-0.735,3.306-3.471,5.791-6.832,6.205c-3.36,0.413-6.618-1.334-8.133-4.362l-7.363-14.726l-9.893,29.678
	c-1.126,3.379-4.444,5.646-8.001,5.459c-3.55-0.187-6.626-2.781-7.397-6.254l-10.381-46.717l-6.381,15.952
	c-1.215,3.038-4.157,5.029-7.428,5.029h-24c-4.418,0-8-3.582-8-8c0-4.418,3.582-8,8-8h18.583l13.989-34.971
	c1.308-3.269,4.713-5.335,8.215-4.989c3.402,0.336,6.28,2.887,7.022,6.224l9.734,43.805l6.867-20.6
	c2.205-6.617,11.623-7.292,14.745-1.048l5.923,11.847l11.112-50.004c0.825-3.71,4.274-6.392,8.074-6.261
	c3.8,0.131,7.064,3.018,7.643,6.779l9.121,59.286l7.127-35.639c0.716-3.579,3.875-6.274,7.521-6.424
	c3.653-0.15,7.012,2.28,8.016,5.795l10.934,38.271l14.514-24.189c3.188-5.313,11.247-4.998,14.015,0.538l5.789,11.578H360
	c4.418,0,8,3.582,8,8c0,4.418-3.582,8-8,8h-24c-3.03,0-5.8-1.712-7.155-4.422l-1.483-2.966l-16.502,27.504
	c-3.531,5.883-12.67,4.666-14.552-1.918l-6.935-24.271l-9.528,47.643C279.095,309.318,275.806,312.003,272.002,312.003z"/>
<path style="fill:#45CDD9;" d="M256,56.003c4.418,0,8-3.582,8-8v-40c0-4.418-3.582-8-8-8c-68.38,0-132.667,26.629-181.02,74.98
	C26.628,123.336,0,187.623,0,256.003c0,68.289,26.569,132.516,74.812,180.847c48.236,48.324,112.4,75.012,180.672,75.147
	c4.363,0,8.016-3.631,8.016-8v-40c0-4.411-3.57-7.989-7.981-8C145.504,455.736,56,366.02,56,256.003
	C56,145.723,145.72,56.003,256,56.003z"/>
<path style="fill:#FF6BB5;" d="M320.269,8.143c-4.279-1.106-8.641,1.465-9.748,5.741l-10.024,38.734
	c-1.092,4.22,1.526,8.659,5.742,9.749C394.416,85.177,456,164.803,456,256.003c0,4.418,3.582,8,8,8h40c4.418,0,8-3.582,8-8
	C512,139.258,433.157,37.333,320.269,8.143z"/>
<g>
</g>
<g>
</g>
<g>
</g>
<g>
</g>
<g>
</g>
<g>
</g>
<g>
</g>
<g>
</g>
<g>
</g>
<g>
</g>
<g>
</g>
<g>
</g>
<g>
</g>
<g>
</g>
<g>
</g>
</svg>
